<svg xmlns="http://www.w3.org/2000/svg" width="20" height="22" viewBox="0 0 20 22">
  <metadata><?xpacket begin="﻿" id="W5M0MpCehiHzreSzNTczkc9d"?>
<x:xmpmeta xmlns:x="adobe:ns:meta/" x:xmptk="Adobe XMP Core 5.6-c138 79.159824, 2016/09/14-01:09:01        ">
   <rdf:RDF xmlns:rdf="http://www.w3.org/1999/02/22-rdf-syntax-ns#">
      <rdf:Description rdf:about=""/>
   </rdf:RDF>
</x:xmpmeta>
                                                                                                    
                                                                                                    
                                                                                                    
                                                                                                    
                                                                                                    
                                                                                                    
                                                                                                    
                                                                                                    
                                                                                                    
                                                                                                    
                                                                                                    
                                                                                                    
                                                                                                    
                                                                                                    
                                                                                                    
                                                                                                    
                                                                                                    
                                                                                                    
                                                                                                    
                                                                                                    
                           
<?xpacket end="w"?></metadata>
<defs>
    <style>
      .cls-1, .cls-2 {
        fill: #fff;
      }

      .cls-1 {
        fill-opacity: 0;
      }

      .cls-2 {
        fill-rule: evenodd;
      }
    </style>
  </defs>
  <rect class="cls-1" width="20" height="22"/>
  <path class="cls-2" d="M20,12.262V20H15.713V12.78c0-1.814-.62-3.051-2.171-3.051a2.359,2.359,0,0,0-2.2,1.641,3.2,3.2,0,0,0-.142,1.094V20H6.912s0.058-12.228,0-13.495H11.2V8.418c-0.008.014-.02,0.03-0.028,0.044H11.2V8.418a4.232,4.232,0,0,1,3.864-2.23C17.885,6.188,20,8.117,20,12.262ZM2,0A1.721,1.721,0,0,0,0,2,1.742,1.742,0,0,0,2,4H2A1.72,1.72,0,0,0,4,2,1.731,1.731,0,0,0,2,0ZM0,20H4V6H0V20Z"/>
</svg>
