<?xml version="1.0" encoding="utf-8"?>
<!-- Generator: Adobe Illustrator 22.1.0, SVG Export Plug-In . SVG Version: 6.00 Build 0)  -->
<svg version="1.1" id="Layer_1" xmlns="http://www.w3.org/2000/svg" xmlns:xlink="http://www.w3.org/1999/xlink" x="0px" y="0px"
	 viewBox="0 0 73 41" style="enable-background:new 0 0 73 41;" xml:space="preserve">
<style type="text/css">
	.st0{fill:url(#Shape_4_);}
	.st1{fill:#F06DA3;}
	.st2{fill:#FFFFFF;}
</style>
<g id="Page-1">
	<g id="one-page-love-award-ribbon">
		
			<linearGradient id="Shape_4_" gradientUnits="userSpaceOnUse" x1="-261.9735" y1="404.1206" x2="-260.9735" y2="404.1206" gradientTransform="matrix(38.2837 0 0 -30.2922 10038.2852 12256.9229)">
			<stop  offset="0.4305" style="stop-color:#596063"/>
			<stop  offset="0.4861" style="stop-color:#4B5154"/>
			<stop  offset="0.6359" style="stop-color:#2B2E2F"/>
			<stop  offset="0.7761" style="stop-color:#131515"/>
			<stop  offset="0.9016" style="stop-color:#050506"/>
			<stop  offset="1" style="stop-color:#FFFFFF"/>
		</linearGradient>
		<polyline id="Shape" class="st0" points="47.2,16.7 29.6,30.3 9,24.1 41.6,0.1 		"/>
		<path id="Shape_1_" d="M47.2,16.7H0V0.1h41.5 M9,24.1h64l-2.9,7.8l2.9,8.9H14.6"/>
		<g id="Group" transform="translate(3.064586, 3.693219)">
			<path id="Shape_2_" class="st1" d="M7,0.8c0-0.2,0-0.4,0.1-0.6C6,0.6,5.5,1.6,5.5,1.6S4.1-0.8,1.6,0.3c-2.3,1.1-2,4,0,6
				c1.9,1.8,3.3,3,3.8,3.2h0.1c0.4-0.1,1.9-1.4,3.8-3.2c0.8-0.8,1.4-1.8,1.6-2.7c-0.3,0.1-0.6,0.1-0.9,0.1C8.3,3.7,7,2.4,7,0.8z"/>
			<g id="c-link" transform="translate(6.993541, 0.157158)">
				<g>
					<path id="c" d="M0.1,0C0.1,0,0.1,0,0.1,0C0,0.2,0,0.5,0,0.7c0,1.6,1.3,2.9,2.9,2.9c0.3,0,0.6,0,0.9-0.1L0.1,0z"/>
				</g>
				<g>
					<path id="c_1_" class="st2" d="M0.1,0C0.1,0,0.1,0,0.1,0C0,0.2,0,0.5,0,0.7c0,1.6,1.3,2.9,2.9,2.9c0.3,0,0.6,0,0.9-0.1L0.1,0z"
						/>
				</g>
			</g>
		</g>
		<path id="Shape_3_" class="st2" d="M21.1,13c-2.6,0-4.5-1.9-4.5-4.5S18.4,4,21.1,4c2.6,0,4.5,1.9,4.5,4.5S23.7,13,21.1,13z
			 M21.1,11.3c1.6,0,2.6-1.2,2.6-2.8c0-1.6-1-2.8-2.6-2.8c-1.6,0-2.6,1.2-2.6,2.8C18.4,10.1,19.5,11.3,21.1,11.3z M28.7,12.8h-1.8
			V4.1H31c1.9,0,2.9,1.3,2.9,2.8c0,1.5-1,2.8-2.9,2.8h-2.2V12.8z M30.7,8.1c0.7,0,1.3-0.4,1.3-1.2c0-0.7-0.6-1.2-1.3-1.2h-2v2.3
			H30.7z M40.5,12.8v-1.6h-3.7V4.1h-1.9v8.7H40.5z M27.9,36.7h-2.1l-0.5-1.5h-3.7L21,36.7h-2.1l3.3-8.7h2.3L27.9,36.7z M24.8,33.6
			l-1.4-3.7l-1.4,3.7H24.8z M36.7,36.7h-2l-1.5-6l-1.5,6h-2L27.3,28h2.1l1.5,6.3l1.7-6.3H34l1.6,6.3l1.5-6.3h2.1L36.7,36.7z
			 M47.6,36.7h-2.1L45,35.2h-3.7l-0.5,1.5h-2.1L42,28h2.3L47.6,36.7z M44.5,33.6l-1.4-3.7l-1.4,3.7H44.5z M55.5,36.7h-2.1l-1.7-3.1
			h-1.4v3.1h-1.8V28h4.1c1.8,0,2.9,1.2,2.9,2.8c0,1.5-1,2.4-1.9,2.6L55.5,36.7z M52.2,32c0.7,0,1.3-0.4,1.3-1.2
			c0-0.7-0.6-1.2-1.3-1.2h-2V32H52.2z M60.2,36.7h-3.4V28h3.4c2.7,0,4.6,1.7,4.6,4.3C64.8,35,62.9,36.7,60.2,36.7z M60.2,35.1
			c1.7,0,2.7-1.2,2.7-2.7c0-1.5-0.9-2.7-2.7-2.7h-1.6v5.4H60.2z"/>
	</g>
</g>
</svg>
