<svg xmlns="http://www.w3.org/2000/svg" width="20" height="22" viewBox="0 0 20 22">
  <metadata><?xpacket begin="﻿" id="W5M0MpCehiHzreSzNTczkc9d"?>
<x:xmpmeta xmlns:x="adobe:ns:meta/" x:xmptk="Adobe XMP Core 5.6-c138 79.159824, 2016/09/14-01:09:01        ">
   <rdf:RDF xmlns:rdf="http://www.w3.org/1999/02/22-rdf-syntax-ns#">
      <rdf:Description rdf:about=""/>
   </rdf:RDF>
</x:xmpmeta>
                                                                                                    
                                                                                                    
                                                                                                    
                                                                                                    
                                                                                                    
                                                                                                    
                                                                                                    
                                                                                                    
                                                                                                    
                                                                                                    
                                                                                                    
                                                                                                    
                                                                                                    
                                                                                                    
                                                                                                    
                                                                                                    
                                                                                                    
                                                                                                    
                                                                                                    
                                                                                                    
                           
<?xpacket end="w"?></metadata>
<defs>
    <style>
      .cls-1, .cls-2 {
        fill: #fff;
      }

      .cls-1 {
        fill-opacity: 0;
      }

      .cls-2 {
        fill-rule: evenodd;
      }
    </style>
  </defs>
  <rect class="cls-1" width="20" height="22"/>
  <path class="cls-2" d="M19.165,13.448A9.278,9.278,0,0,0,10,2.72a9.364,9.364,0,0,0-1.448.114A5.608,5.608,0,0,0,.834,10.552,9.433,9.433,0,0,0,.721,12a9.287,9.287,0,0,0,10.727,9.166A5.608,5.608,0,0,0,19.165,13.448ZM14.4,16.22a3.853,3.853,0,0,1-1.722,1.324A6.862,6.862,0,0,1,10,18.021a6.4,6.4,0,0,1-3.065-.653,3.973,3.973,0,0,1-1.4-1.255A2.723,2.723,0,0,1,5,14.579a1.02,1.02,0,0,1,.331-0.76A1.179,1.179,0,0,1,6.177,13.5a1.054,1.054,0,0,1,.7.247,1.882,1.882,0,0,1,.482.718,4.508,4.508,0,0,0,.509.914,2.02,2.02,0,0,0,.764.6,3.006,3.006,0,0,0,1.3.236,3.1,3.1,0,0,0,1.8-.477,1.386,1.386,0,0,0,.683-1.177,1.18,1.18,0,0,0-.364-0.9,2.428,2.428,0,0,0-.962-0.538q-0.6-.189-1.6-0.4a12.542,12.542,0,0,1-2.257-.686,3.662,3.662,0,0,1-1.453-1.076,2.675,2.675,0,0,1-.54-1.7,2.773,2.773,0,0,1,.569-1.72A3.552,3.552,0,0,1,7.455,6.38a7.153,7.153,0,0,1,2.515-.4,6.687,6.687,0,0,1,2,.266,4.4,4.4,0,0,1,1.4.709,3.038,3.038,0,0,1,.819.932,2.041,2.041,0,0,1,.26.959,1.115,1.115,0,0,1-.331.783,1.1,1.1,0,0,1-.826.347,1,1,0,0,1-.687-0.212,2.722,2.722,0,0,1-.5-0.67A2.973,2.973,0,0,0,11.3,8.084a2.474,2.474,0,0,0-1.5-.357,2.773,2.773,0,0,0-1.554.39,1.105,1.105,0,0,0-.581.923,0.887,0.887,0,0,0,.195.573,1.642,1.642,0,0,0,.549.422,3.813,3.813,0,0,0,.714.281c0.243,0.069.646,0.168,1.206,0.3q1.054,0.227,1.913.505A6.007,6.007,0,0,1,13.7,11.8a2.855,2.855,0,0,1,.95,1.013,3.042,3.042,0,0,1,.342,1.5A3.255,3.255,0,0,1,14.4,16.22Z"/>
</svg>
