<svg xmlns="http://www.w3.org/2000/svg" width="22" height="19.344" viewBox="0 0 22 19.344">
  <metadata><?xpacket begin="﻿" id="W5M0MpCehiHzreSzNTczkc9d"?>
<x:xmpmeta xmlns:x="adobe:ns:meta/" x:xmptk="Adobe XMP Core 5.6-c138 79.159824, 2016/09/14-01:09:01        ">
   <rdf:RDF xmlns:rdf="http://www.w3.org/1999/02/22-rdf-syntax-ns#">
      <rdf:Description rdf:about=""/>
   </rdf:RDF>
</x:xmpmeta>
                                                                                                    
                                                                                                    
                                                                                                    
                                                                                                    
                                                                                                    
                                                                                                    
                                                                                                    
                                                                                                    
                                                                                                    
                                                                                                    
                                                                                                    
                                                                                                    
                                                                                                    
                                                                                                    
                                                                                                    
                                                                                                    
                                                                                                    
                                                                                                    
                                                                                                    
                                                                                                    
                           
<?xpacket end="w"?></metadata>
<defs>
    <style>
      .cls-1 {
        fill: #fff;
        fill-rule: evenodd;
      }
    </style>
  </defs>
  <path id="telegram" class="cls-1" d="M0.888,9.6l5.069,1.912L7.92,17.894a0.594,0.594,0,0,0,.948.288l2.826-2.328a0.836,0.836,0,0,1,1.028-.029l5.1,3.74a0.6,0.6,0,0,0,.936-0.365L22.488,1.047a0.6,0.6,0,0,0-.8-0.686L0.882,8.473A0.607,0.607,0,0,0,.888,9.6ZM7.6,10.5L17.511,4.33a0.174,0.174,0,0,1,.208.276L9.543,12.288a1.719,1.719,0,0,0-.525,1.025L8.739,15.4a0.256,0.256,0,0,1-.5.037l-1.071-3.8A1.013,1.013,0,0,1,7.6,10.5Z" transform="translate(-0.5 -0.344)"/>
</svg>
