<svg xmlns="http://www.w3.org/2000/svg" width="25" height="22" viewBox="0 0 25 22">
  <metadata><?xpacket begin="﻿" id="W5M0MpCehiHzreSzNTczkc9d"?>
<x:xmpmeta xmlns:x="adobe:ns:meta/" x:xmptk="Adobe XMP Core 5.6-c138 79.159824, 2016/09/14-01:09:01        ">
   <rdf:RDF xmlns:rdf="http://www.w3.org/1999/02/22-rdf-syntax-ns#">
      <rdf:Description rdf:about=""/>
   </rdf:RDF>
</x:xmpmeta>
                                                                                                    
                                                                                                    
                                                                                                    
                                                                                                    
                                                                                                    
                                                                                                    
                                                                                                    
                                                                                                    
                                                                                                    
                                                                                                    
                                                                                                    
                                                                                                    
                                                                                                    
                                                                                                    
                                                                                                    
                                                                                                    
                                                                                                    
                                                                                                    
                                                                                                    
                                                                                                    
                           
<?xpacket end="w"?></metadata>
<defs>
    <style>
      .cls-1, .cls-2 {
        fill: #fff;
      }

      .cls-1 {
        fill-opacity: 0;
      }

      .cls-2 {
        fill-rule: evenodd;
      }
    </style>
  </defs>
  <rect class="cls-1" width="20" height="22"/>
  <path class="cls-2" d="M24.866,17.645a1.708,1.708,0,0,0-.085-0.16A12.78,12.78,0,0,0,22.3,14.661l-0.026-.026-0.013-.012-0.013-.013H22.23a14.791,14.791,0,0,1-1.054-1.048,0.971,0.971,0,0,1-.183-1.035,9.666,9.666,0,0,1,1.172-1.674q0.534-.677.846-1.086,2.252-2.939,1.952-3.757l-0.078-.128a0.766,0.766,0,0,0-.4-0.211,2.082,2.082,0,0,0-.833-0.032L19.9,5.664a0.493,0.493,0,0,0-.26.006l-0.169.038-0.065.032-0.052.038a0.57,0.57,0,0,0-.143.134,0.868,0.868,0,0,0-.13.224,20.728,20.728,0,0,1-1.393,2.875q-0.481.792-.885,1.374a6.642,6.642,0,0,1-.677.856,4.694,4.694,0,0,1-.494.441,0.482,0.482,0,0,1-.338.14c-0.078-.017-0.152-0.034-0.222-0.051a0.859,0.859,0,0,1-.293-0.313,1.379,1.379,0,0,1-.15-0.5q-0.039-.3-0.046-0.518c0-.145,0-0.349.006-0.614s0.013-.443.013-0.537q0-.486.02-1.054t0.032-.9q0.013-.332.013-0.7a2.9,2.9,0,0,0-.046-0.581,1.945,1.945,0,0,0-.136-0.409,0.69,0.69,0,0,0-.267-0.307,1.517,1.517,0,0,0-.436-0.173A8.82,8.82,0,0,0,12.027,5a8.687,8.687,0,0,0-3.11.307,1.748,1.748,0,0,0-.494.383Q8.187,5.971,8.357,6a1.6,1.6,0,0,1,1.106.549L9.541,6.7a2.4,2.4,0,0,1,.182.588,5.8,5.8,0,0,1,.117.933,9.75,9.75,0,0,1,0,1.6q-0.065.665-.123,1.035a2.036,2.036,0,0,1-.176.6,2.62,2.62,0,0,1-.156.281,0.228,0.228,0,0,1-.065.064,0.991,0.991,0,0,1-.351.064,0.833,0.833,0,0,1-.443-0.179,3.092,3.092,0,0,1-.54-0.492,6.525,6.525,0,0,1-.631-0.875,15.108,15.108,0,0,1-.729-1.329L6.418,8.616q-0.2-.358-0.534-1.042t-0.6-1.323a0.845,0.845,0,0,0-.312-0.409L4.908,5.8A0.891,0.891,0,0,0,4.7,5.7a1.4,1.4,0,0,0-.3-0.083l-3.566.026a0.917,0.917,0,0,0-.742.243L0.04,5.958a0.4,0.4,0,0,0-.039.2,1,1,0,0,0,.078.345q0.781,1.8,1.7,3.476t1.594,2.7q0.677,1.023,1.38,1.93t0.931,1.163q0.228,0.256.358,0.383l0.326,0.307a7.714,7.714,0,0,0,.917.735,15.74,15.74,0,0,0,1.341.844,7.35,7.35,0,0,0,1.711.677,6.013,6.013,0,0,0,1.9.211h1.5a1.046,1.046,0,0,0,.69-0.281l0.052-.064a0.845,0.845,0,0,0,.1-0.236A1.271,1.271,0,0,0,14.617,18a4.15,4.15,0,0,1,.084-0.991,2.585,2.585,0,0,1,.222-0.664,1.644,1.644,0,0,1,.28-0.377,1.109,1.109,0,0,1,.222-0.185,0.819,0.819,0,0,1,.1-0.045,0.837,0.837,0,0,1,.736.2,4.285,4.285,0,0,1,.794.741q0.371,0.441.891,0.991a6.083,6.083,0,0,0,.911.818l0.26,0.153a3.2,3.2,0,0,0,.677.281,1.483,1.483,0,0,0,.729.064l3.332-.051a1.532,1.532,0,0,0,.768-0.16,0.635,0.635,0,0,0,.325-0.351,0.965,0.965,0,0,0,.007-0.435A1.582,1.582,0,0,0,24.866,17.645Z"/>
</svg>
